<?xml version="1.0" encoding="UTF-8" standalone="no"?>
<svg
   xmlns:dc="http://purl.org/dc/elements/1.1/"
   xmlns:cc="http://creativecommons.org/ns#"
   xmlns:rdf="http://www.w3.org/1999/02/22-rdf-syntax-ns#"
   xmlns:svg="http://www.w3.org/2000/svg"
   xmlns="http://www.w3.org/2000/svg"
   xmlns:sodipodi="http://sodipodi.sourceforge.net/DTD/sodipodi-0.dtd"
   xmlns:inkscape="http://www.inkscape.org/namespaces/inkscape"
   height="574.17163"
   width="600"
   id="Calque_2"
   data-name="Calque 2"
   viewBox="0 0 599.99999 574.17164"
   version="1.1"
   sodipodi:docname="Logo 8 Mont Blanc.svg"
   inkscape:version="1.0beta1 (76ce730, 2019-10-19)">
  <metadata
     id="metadata870">
    <rdf:RDF>
      <cc:Work
         rdf:about="">
        <dc:format>image/svg+xml</dc:format>
        <dc:type
           rdf:resource="http://purl.org/dc/dcmitype/StillImage" />
      </cc:Work>
    </rdf:RDF>
  </metadata>
  <sodipodi:namedview
     pagecolor="#ffffff"
     bordercolor="#666666"
     inkscape:document-rotation="0"
     borderopacity="1"
     objecttolerance="10"
     gridtolerance="10"
     guidetolerance="10"
     inkscape:pageopacity="0"
     inkscape:pageshadow="2"
     inkscape:window-width="1440"
     inkscape:window-height="784"
     id="namedview868"
     showgrid="false"
     inkscape:zoom="1.4"
     inkscape:cx="91.233838"
     inkscape:cy="99.777121"
     inkscape:window-x="0"
     inkscape:window-y="23"
     inkscape:window-maximized="0"
     inkscape:current-layer="Calque_2" />
  <defs
     id="defs835">
    <style
       id="style833">.cls-1{fill:#9b1e1e;}.cls-2{fill:#fff;}</style>
  </defs>
  <title
     id="title837">logo-8montblanc</title>
  <g
     transform="matrix(3.024661,0,0,3.024661,15.548884,16.98418)"
     id="g1050">
    <path
       inkscape:connector-curvature="0"
       id="path883"
       style="color:#000000;font-style:normal;font-variant:normal;font-weight:normal;font-stretch:normal;font-size:medium;line-height:normal;font-family:sans-serif;font-variant-ligatures:normal;font-variant-position:normal;font-variant-caps:normal;font-variant-numeric:normal;font-variant-alternates:normal;font-variant-east-asian:normal;font-feature-settings:normal;font-variation-settings:normal;text-indent:0;text-align:start;text-decoration:none;text-decoration-line:none;text-decoration-style:solid;text-decoration-color:#000000;letter-spacing:normal;word-spacing:normal;text-transform:none;writing-mode:lr-tb;direction:ltr;text-orientation:mixed;dominant-baseline:auto;baseline-shift:baseline;text-anchor:start;white-space:normal;shape-padding:0;shape-margin:0;inline-size:0;clip-rule:nonzero;display:inline;overflow:visible;visibility:visible;opacity:1;isolation:auto;mix-blend-mode:normal;color-interpolation:sRGB;color-interpolation-filters:linearRGB;solid-color:#000000;solid-opacity:1;vector-effect:none;fill:#ffffff;fill-opacity:1;fill-rule:nonzero;stroke:none;stroke-width:11.3386;stroke-linecap:butt;stroke-linejoin:miter;stroke-miterlimit:4;stroke-dasharray:none;stroke-dashoffset:0;stroke-opacity:1;color-rendering:auto;image-rendering:auto;shape-rendering:auto;text-rendering:auto;enable-background:accumulate;stop-color:#000000;stop-opacity:1"
       d="M 93.28125,-5.6152344 C 74.538334,-5.5956466 60.548402,1.2021855 51.716797,11.373047 42.885192,21.543908 39.184528,34.65716 39.214844,47.15625 c 0.02754,11.3554 3.282798,24.632435 16.583984,38.533203 -7.835325,4.489006 -13.422327,10.807386 -17.017578,17.410157 -4.682239,8.59905 -6.303605,17.5395 -6.320312,24.42773 -0.02963,12.2151 2.649091,26.3277 11.96875,37.63086 9.319656,11.30316 25.154731,19.03748 48.853515,19.05664 h 0.0039 0.0039 c 23.698607,-0.0192 39.533817,-7.75349 48.853517,-19.05664 9.3197,-11.30314 11.99837,-25.41573 11.96875,-37.63086 -0.0167,-6.88826 -1.63805,-15.82869 -6.32031,-24.42773 -3.59526,-6.602763 -9.1823,-12.921152 -17.01758,-17.410157 13.3011,-13.900756 16.55642,-27.177776 16.584,-38.533203 0.0303,-12.499115 -3.67032,-25.612354 -12.50196,-35.783203 C 126.02579,1.2021976 112.03575,-5.5956465 93.292969,-5.6152344 h -0.0059 z m -0.224609,38.4218754 0.230468,0.0098 0.230469,-0.0098 c 5.607205,-0.228934 12.632102,5.024552 12.539062,14.279297 v 0.01953 0.02148 c -0.0166,5.876198 -1.75914,9.872309 -5.02539,13.900391 -2.034559,2.509101 -4.326269,4.521371 -6.130859,5.791015 -0.678228,0.477177 -1.157222,0.729336 -1.613282,0.976563 -0.455842,-0.247184 -0.933412,-0.499501 -1.611328,-0.976563 -1.804158,-1.269617 -4.096063,-3.281622 -6.130859,-5.791015 -3.266268,-4.028095 -5.00877,-8.02423 -5.025391,-13.900391 v -0.02148 -0.01953 c -0.09305,-9.255343 6.929881,-14.508233 12.53711,-14.279297 z m 0.230468,72.070309 c 4.041342,1.68545 8.621781,4.85506 12.408201,8.65039 3.43352,4.18923 5.6365,8.17911 5.5918,13.97071 v 0.041 0.043 c 0.0495,6.83463 -2.58306,10.90686 -6.21094,13.82227 -3.62788,2.9154 -8.559317,4.27362 -11.697264,4.22265 l -0.0918,-0.002 -0.0918,0.002 c -3.137952,0.051 -8.069888,-1.30736 -11.697265,-4.22265 -3.627377,-2.9153 -6.258493,-6.98742 -6.208985,-13.82227 v -0.043 -0.041 c -0.04467,-5.79259 2.156936,-9.78216 5.589844,-13.97071 3.78642,-3.79533 8.366862,-6.96494 12.408203,-8.65039 z" />
    <path
       inkscape:connector-curvature="0"
       id="path881"
       style="color:#000000;font-style:normal;font-variant:normal;font-weight:normal;font-stretch:normal;font-size:medium;line-height:normal;font-family:sans-serif;font-variant-ligatures:normal;font-variant-position:normal;font-variant-caps:normal;font-variant-numeric:normal;font-variant-alternates:normal;font-variant-east-asian:normal;font-feature-settings:normal;font-variation-settings:normal;text-indent:0;text-align:start;text-decoration:none;text-decoration-line:none;text-decoration-style:solid;text-decoration-color:#000000;letter-spacing:normal;word-spacing:normal;text-transform:none;writing-mode:lr-tb;direction:ltr;text-orientation:mixed;dominant-baseline:auto;baseline-shift:baseline;text-anchor:start;white-space:normal;shape-padding:0;shape-margin:0;inline-size:0;clip-rule:nonzero;display:inline;overflow:visible;visibility:visible;opacity:1;isolation:auto;mix-blend-mode:normal;color-interpolation:sRGB;color-interpolation-filters:linearRGB;solid-color:#000000;solid-opacity:1;vector-effect:none;fill:#9b1e1e;fill-opacity:1;fill-rule:nonzero;stroke:none;stroke-width:11.3386;stroke-linecap:butt;stroke-linejoin:miter;stroke-miterlimit:4;stroke-dasharray:none;stroke-dashoffset:0;stroke-opacity:1;color-rendering:auto;image-rendering:auto;shape-rendering:auto;text-rendering:auto;enable-background:accumulate;stop-color:#000000;stop-opacity:1"
       d="M 93.287109,0.0546875 C 58.438024,0.0911075 44.829647,24.417468 44.884766,47.142578 c 0.02788,11.494665 2.867736,23.816854 18.632812,38.28125 0.221477,0.203205 0.980464,1.075066 1.833984,2.066406 -21.313862,7.384834 -27.191766,28.120486 -27.220703,40.050786 -0.05512,22.72511 10.128594,50.96748 55.15625,51.0039 45.027271,-0.0364 55.211351,-28.27879 55.156251,-51.0039 -0.0289,-11.9303 -5.90702,-32.665952 -27.2207,-40.050786 0.85351,-0.99134 1.6125,-1.863201 1.83398,-2.066406 15.76494,-14.464396 18.60491,-26.786585 18.63281,-38.28125 C 141.74457,24.417468 128.1359,0.0911075 93.287109,0.0546875 Z m 0,27.0878905 c 9.138141,-0.373097 18.562091,7.80059 18.439451,20 -0.0202,7.127626 -2.39589,12.651449 -6.29101,17.455078 -4.80007,5.919642 -10.547054,9.291466 -12.148441,9.21875 -1.601387,0.07272 -7.346415,-3.299108 -12.146484,-9.21875 -3.895127,-4.803629 -6.270856,-10.327452 -6.291016,-17.455078 -0.122647,-12.19941 9.299365,-20.373097 18.4375,-20 z m 0,71.613281 c 5.735105,1.819911 11.730971,5.997231 16.585941,10.906251 3.98348,4.80231 7.14198,10.3637 7.08398,17.87891 0.12265,16.93156 -14.4425,23.90377 -23.669921,23.7539 -9.227421,0.14987 -23.790615,-6.82234 -23.667968,-23.7539 -0.05796,-7.51521 3.098552,-13.0766 7.082031,-17.87891 4.854968,-4.90902 10.850832,-9.08634 16.585937,-10.906251 z" />
  </g>
  <g
     transform="matrix(3.024661,0,0,3.024661,15.548884,16.98418)"
     id="g1064">
    <path
       style="color:#000000;font-style:normal;font-variant:normal;font-weight:normal;font-stretch:normal;font-size:medium;line-height:normal;font-family:sans-serif;font-variant-ligatures:normal;font-variant-position:normal;font-variant-caps:normal;font-variant-numeric:normal;font-variant-alternates:normal;font-variant-east-asian:normal;font-feature-settings:normal;font-variation-settings:normal;text-indent:0;text-align:start;text-decoration:none;text-decoration-line:none;text-decoration-style:solid;text-decoration-color:#000000;letter-spacing:normal;word-spacing:normal;text-transform:none;writing-mode:lr-tb;direction:ltr;text-orientation:mixed;dominant-baseline:auto;baseline-shift:baseline;text-anchor:start;white-space:normal;shape-padding:0;shape-margin:0;inline-size:0;clip-rule:nonzero;display:inline;overflow:visible;visibility:visible;opacity:1;isolation:auto;mix-blend-mode:normal;color-interpolation:sRGB;color-interpolation-filters:linearRGB;solid-color:#000000;solid-opacity:1;vector-effect:none;fill:#ffffff;fill-opacity:1;fill-rule:nonzero;stroke:none;stroke-width:8.31496;stroke-linecap:butt;stroke-linejoin:miter;stroke-miterlimit:4;stroke-dasharray:none;stroke-dashoffset:0;stroke-opacity:1;color-rendering:auto;image-rendering:auto;shape-rendering:auto;text-rendering:auto;enable-background:accumulate;stop-color:#000000;stop-opacity:1"
       d="m 125.62109,59.96875 -0.4414,3.478516 c -2.05703,-2.059781 -4.9095,-2.805844 -7.68164,-2.882813 l -0.0566,-0.002 -12.01563,-0.0059 -0.46094,3.636718 c -0.6998,5.518199 -1.18904,9.371955 -2.08789,16.449219 h -2.16797 V 76.5 H 87.355469 l 0.416015,-3.3125 h -2.449218 l 1.007812,-8.185547 H 72.800781 L 72.330078,68.625 c -0.225448,1.738629 -0.449565,3.476978 -0.673828,5.212891 -0.127033,0.07061 -0.343019,0.277501 -0.515625,0.390625 -1.097589,-0.820849 -2.394454,-1.371666 -3.792969,-1.550782 l -0.144531,-0.01953 -0.144531,-0.0078 c -0.231969,-0.01327 -0.464931,-0.01995 -0.697266,-0.01758 h -0.002 c -0.947534,0.0093 -1.845898,0.2832 -2.742187,0.542969 h -7.169922 l 0.06445,0.002 c -0.868804,-0.0135 -2.549175,0.200874 -3.775391,1.482422 -0.529376,0.553265 -0.771533,1.06771 -0.960937,1.544922 -2.080612,-2.284288 -5.075899,-3.62715 -8.253907,-3.574219 h -0.002 c -0.913282,0.01538 -1.820442,0.15311 -2.701172,0.394532 -2.311643,0.586222 -4.29715,1.906264 -5.990234,3.554687 V 60.632812 L 30.78125,60.523438 c -1.128121,-0.03037 -4.26077,-0.01239 -5.208984,0 -0.06868,-0.0031 -0.136292,-0.01707 -0.205078,-0.01758 h -0.0078 -0.0059 c -2.535283,-0.01051 -4.778106,1.813192 -5.28711,4.296875 l 0.150391,-0.546875 -0.867188,2.466797 -0.130859,-1.267578 c -0.08368,-0.93314 -0.394001,-2.575525 -1.853516,-3.77539 -1.459515,-1.199866 -2.827782,-1.16183 -3.564453,-1.166016 h -0.002 c -1.544279,-0.0083 -3.143947,0.0097 -4.6328124,0 -0.8757469,-0.0057 -2.3442762,0.02271 -3.7695312,1.191406 -1.425255,1.168694 -1.721,2.574986 -1.8847656,3.357422 l 0.00195,-0.01758 -8.6542969,40.486331 H 4.9179688 c 0.743131,0 2.0302559,-0.055 3.3222656,-1.03906 0.8718384,-0.66401 1.2893184,-1.46343 1.5683594,-2.19727 0.2309832,0.63363 0.5814742,1.36137 1.3320312,2.00977 1.043726,0.90167 2.176478,1.10819 2.814453,1.17969 0.637975,0.0715 1.037433,0.0573 1.484375,0.0586 h 0.0059 0.0059 c 0.783505,0 2.059472,-0.0589 3.345703,-0.96094 1.000738,-0.70182 1.456731,-1.54061 1.755859,-2.23633 v 3.12891 h 14.275391 v -0.96484 c 1.484654,0.87586 3.175639,1.40492 4.955078,1.45507 3.062214,0.15183 6.005127,-0.84263 8.388672,-2.64843 l -0.269531,2.1582 h 13.5625 l 0.002,-0.008 h 6.189453 l -0.002,0.0156 13.570312,-0.0195 1.671875,-13.119143 v 2.052734 h 4.363282 v 4.13086 l 13.345703,-0.0039 c -0.0208,0.163821 -0.27539,2.169919 -0.27539,2.169919 l -0.587891,4.63281 4.669921,0.0488 c 0,0 7.73721,0.0915 10.66992,-0.002 l 0.0352,-0.002 0.0371,-0.002 c 1.72787,-0.0852 3.36611,-0.58424 4.88281,-1.32226 l -0.17773,1.40429 h 13.64453 l 0.22265,-1.7539 c 2.41179,1.98601 5.61847,2.72122 8.5586,1.76757 h 6.70703 l -0.004,0.0371 h 4.71094 c 1.63193,0 3.30542,0.0562 5.11719,-0.004 h 0.002 c 0.6033,-0.0203 0.93903,-0.17784 1.31445,-0.31446 l -0.0352,0.28516 h 12.45507 l 1.21094,-2.01953 c -0.13585,0.22642 0.0629,0.10062 0.29883,-0.44727 3.18257,2.90953 7.82396,3.84014 11.91211,2.01953 2.7881,-0.97684 4.76207,-3.55886 4.85351,-6.537102 l -0.0234,0.332031 c 0.46621,-4.192913 0.5018,-4.425011 0.61328,-5.30664 l 0.29101,-2.306641 0.0547,0.02148 0.67774,-5.300781 c 0.21633,-1.692301 0.4369,-3.265862 0.62109,-4.898437 v -0.002 c 0.1442,-1.279959 0.53757,-2.956812 -0.81055,-4.996094 -1.34812,-2.039282 -2.9716,-2.322616 -4.20507,-2.72461 -1.25957,-0.410933 -2.56998,-0.610337 -3.87305,-0.591796 -3.54383,0.05042 -6.83278,1.780187 -9.28321,4.474609 l 0.0371,0.07422 c -0.0112,-0.02323 -0.0316,-0.03941 -0.043,-0.0625 -8.6e-4,-0.0017 8.6e-4,-0.0042 0,-0.0059 -6.3e-4,6.85e-4 -0.001,0.0013 -0.002,0.002 -1.38636,-2.808015 -4.28231,-4.590151 -7.41797,-4.539062 -0.67081,0.01098 -1.33662,0.104564 -1.98437,0.279297 l -0.0664,0.01758 -0.0625,0.01953 c -0.17022,0.05186 -0.31635,0.157306 -0.48437,0.214844 h -2.76563 c -0.70148,0 -3.42897,4.19e-4 -4.31054,-0.01367 h -0.004 -0.004 c -0.26455,-0.0037 -0.68537,0.05473 -1.08008,0.105469 l -3.57031,-0.0098 c 0,0 -4.22587,-0.0114 -4.89843,-0.0078 -0.81061,0 -1.11872,0.232214 -1.57618,0.398437 -1.22541,-0.64186 -2.60497,-0.992286 -4.02929,-0.970703 h -0.002 c -1.16141,0.018 -2.30114,0.293818 -3.35742,0.775391 -0.65588,0.270363 -1.24344,0.660357 -1.83984,1.035156 l 1.84179,-14.529297 z"
       id="path1218"
       inkscape:connector-curvature="0" />
    <g
       id="g1172">
      <path
         inkscape:connector-curvature="0"
         class="cls-1"
         d="m 96.564,94.367 v -4.136 h 4.415 V 84.8 H 96.551 V 80.658 H 91.4 v 4.18 h -4.345 c 0,1.819 0,3.54 0,5.4 h 4.363 v 4.131 z"
         id="path847" />
      <path
         inkscape:connector-curvature="0"
         class="cls-1"
         d="m 186.757,77.255 c -3.341,-1.09 -6.894,0.152 -9.345,3.276 a 18.214,18.214 0 0 0 -3.648,11.261 11.61,11.61 0 0 0 1.729,6.635 6.917,6.917 0 0 0 8.968,2.771 3.051,3.051 0 0 0 2.21,-2.841 c 0.467,-4.2 0.512,-4.506 0.621,-5.368 -1.236,0.459 -2.254,0.907 -3.313,1.215 -1.966,0.573 -3.552,-0.263 -3.895,-2.281 a 10.523,10.523 0 0 1 0.134,-4.105 c 0.937,-3.916 3.722,-4.969 7.148,-2.861 a 9.318,9.318 0 0 0 0.953,0.439 c 0.22,-1.721 0.437,-3.277 0.613,-4.837 0.259,-2.299 0.068,-2.573 -2.175,-3.304 z"
         id="path849" />
      <path
         inkscape:connector-curvature="0"
         class="cls-1"
         d="m 164.79,101.31 h 5.41 c 0.054,-0.09 0.106,-0.139 0.113,-0.193 0.661,-5.37 1.37,-10.734 1.95,-16.112 a 10.093,10.093 0 0 0 -1.082,-5.943 3.977,3.977 0 0 0 -4.619,-2.115 11.435,11.435 0 0 0 -4.732,2.833 l 0.271,-2.436 c -0.7,0 -3.376,0 -4.377,-0.016 -0.781,-0.011 -1.049,0.2 -1.145,1.01 l -2.879,23.006 c 1.719,0 3.35,0.054 4.978,0 0.178,-0.006 0.453,-0.451 0.492,-0.713 l 1.912,-13.4 a 6.16,6.16 0 0 1 2,-3.591 c 1.058,-0.93 2.268,-0.776 2.811,0.512 a 6.958,6.958 0 0 1 0.593,3.123 z"
         id="path851" />
      <path
         inkscape:connector-curvature="0"
         class="cls-1"
         d="m 148.235,77.417 c -0.2,0 -0.473,0.371 -0.522,0.6 -0.148,0.682 -0.206,1.383 -0.327,2.292 -0.439,-0.637 -0.72,-1.079 -1.035,-1.495 a 4.263,4.263 0 0 0 -5.407,-1.566 8.306,8.306 0 0 0 -3.514,2.65 18.779,18.779 0 0 0 -4.106,12.234 12.654,12.654 0 0 0 1.958,7.419 4.9,4.9 0 0 0 7.505,0.932 14.914,14.914 0 0 0 1.321,-1.427 c 0.312,-0.36 0.59,-0.75 1.057,-1.35 l -0.406,3.6 h 5.335 l 3.029,-23.88 c 0,0 -4.549,-0.011 -4.888,-0.009 z m -7.383,7.994 c 1.406,-1.611 3.8,-1.738 4.848,0.679 a 8,8 0 0 1 -2.111,8.473 c -1.6,1.277 -3.761,0.974 -4.477,-1.119 a 9.407,9.407 0 0 1 1.74,-8.033 z"
         id="path853" />
      <polygon
         class="cls-1"
         points="129.286,64.127 124.576,101.293 129.84,101.293 134.552,64.127 "
         id="polygon855" />
      <path
         inkscape:connector-curvature="0"
         class="cls-1"
         d="m 109.09,64.716 c -1.553,12.246 -4.634,36.5 -4.634,36.5 0,0 7.92,0.082 10.493,0 a 8.5,8.5 0 0 0 6.654,-3.774 14.266,14.266 0 0 0 2.568,-10.013 7.1,7.1 0 0 0 -3.624,-6.007 c -0.044,-0.025 -0.058,-0.1 -0.117,-0.217 a 11.571,11.571 0 0 0 3.638,-9.451 c -0.258,-4.955 -2.219,-6.91 -6.685,-7.034 z m 4.859,6.783 a 0.723,0.723 0 0 1 0.393,-0.509 3.036,3.036 0 0 1 3.855,2.82 5.4,5.4 0 0 1 -1.012,3.4 c -0.984,1.4 -2.1,1.837 -4.156,1.6 0.306,-2.474 0.598,-4.895 0.92,-7.31 z m -1.743,13.744 a 30.219,30.219 0 0 1 3.269,0.023 2.956,2.956 0 0 1 2.653,2.8 12.281,12.281 0 0 1 -0.266,3.745 4.147,4.147 0 0 1 -4,3.288 26.625,26.625 0 0 1 -2.912,0.014 z"
         id="path857" />
      <path
         inkscape:connector-curvature="0"
         class="cls-1"
         d="m 77.563,101.311 2.217,-17.4 h 2.452 l 0.827,-6.566 h -2.44 l 1.01,-8.185 h -5.175 c -0.354,2.73 -0.7,5.427 -1.061,8.2 h -1.454 c 0,0 -0.5,0.132 -0.545,0.446 -0.276,2.01 -0.52,4.025 -0.776,6.1 l 1.938,0.093 -2.184,17.319 z"
         id="path859" />
      <path
         inkscape:connector-curvature="0"
         class="cls-1"
         d="m 52.613,101.316 h 5.221 L 59.6,88.343 a 7.5,7.5 0 0 1 2.2,-4.6 c 1.232,-1.139 2.616,-0.9 3.182,0.643 a 8.165,8.165 0 0 1 0.463,3.068 l -1.705,13.854 h 5.2 c 0.053,-0.087 0.105,-0.136 0.112,-0.19 0.669,-5.4 1.395,-10.791 1.969,-16.2 A 9.754,9.754 0 0 0 69.85,79 3.9,3.9 0 0 0 66.82,76.8 6.192,6.192 0 0 0 62.238,78.456 c -0.518,0.411 -0.995,0.874 -1.609,1.418 0.1,-0.924 0.174,-1.687 0.262,-2.54 -0.763,0 -4.2,0 -4.444,0 -0.708,-0.011 -0.865,0.249 -0.944,0.888 z"
         id="path861" />
      <path
         inkscape:connector-curvature="0"
         class="cls-1"
         d="m 47.547,98.147 a 18.045,18.045 0 0 0 3.716,-11.235 12.534,12.534 0 0 0 -1.491,-6.342 6.757,6.757 0 0 0 -7.9,-3.531 9.365,9.365 0 0 0 -5.175,3.4 17.142,17.142 0 0 0 -3.664,9.455 14.252,14.252 0 0 0 1.514,8.539 6.2,6.2 0 0 0 5.394,3.388 8.725,8.725 0 0 0 7.606,-3.674 z M 40.3,84.779 c 2.022,-2.13 4.043,-2.094 5.2,0.83 1.124,2.845 0.508,6.982 -2.022,8.917 -1.841,1.408 -3.357,1.083 -4.44,-0.794 -1.219,-2.107 -0.918,-6.658 1.262,-8.953 z"
         id="path863" />
      <path
         inkscape:connector-curvature="0"
         class="cls-1"
         d="m 30.669,64.68 c -0.743,-0.02 -4.451,-0.01 -5.148,0 a 1.217,1.217 0 0 0 -1.383,0.957 l -7.045,20.02 -2.015,-19.831 c -0.086,-0.959 -0.42,-1.15 -1.3,-1.155 -1.495,-0.008 -3.1,0.01 -4.64,0 C 8.06,64.664 7.787,64.925 7.58,65.914 L 0,101.373 h 4.918 c 0.733,0 1.021,-0.2 1.166,-0.909 l 4.907,-23.337 2.469,22.516 c 0.18,1.727 0.219,1.737 1.991,1.742 0.895,0 1.179,-0.217 1.451,-1 0,0 7.708,-23.216 7.808,-23.214 v 24.146 h 5.959 z"
         id="path865" />
    </g>
  </g>
</svg>
